# xmcd
#
# Track frame offsets: 
#        150
#        12856
#        23526
#        35467
#        47266
#        56593
#        67219
#        79848
#        91716
#        103875
#        117312
#        128081
#        140238
#        151778
#        164844
#        177377
#        191513
#        202924
#
# Disc length: 2869 seconds
#
# Revision: 3
# Processed by: cddbd v1.5.2PL0 Copyright (c) Steve Scherf et al.
# Submitted via: ExactAudioCopyFreeDBPlugin 1.0
#
DISCID=f00b3312
DTITLE=Various Artist - True Country CD1
DYEAR=2006
DGENRE=Country
TTITLE0=Patsy Cline, The Jordanaires - I Fall To Pieces
TTITLE1=Leroy Van Dyke - Walk On By
TTITLE2=Connie Francis - Everybody's Somebody's Fool
TTITLE3=Marvin Rainwater - Whole Lotta Woman
TTITLE4=Burl Ives - A Little Bitty Tear
TTITLE5=George Hamilton IV - I Know Where I'm Goin'
TTITLE6=Bill Anderson - Still
TTITLE7=Roy Drusky - Three Hearts In A Tangle
TTITLE8=Warner Mack - Is It Wrong
TTITLE9=Bobby Helms - My Special Angel
TTITLE10=Jimmy Newman - A Fallen Star
TTITLE11=Bonnie Guitar - Dark Moon
TTITLE12=Ernest Tubb and His Texas Troubadours - Thanks A Lot
TTITLE13=Hank Williams - Jambalaya (On The Bayou)
TTITLE14=Red Foley - Chattanoogie Shoe Shine Boy (1949 Single Version)
TTITLE15=Rex Allen - Crying In The Chapel
TTITLE16=Kitty Wells - It Wasn't God Who Made Honky Tonk Angels
TTITLE17=Hank Williams - Lovesick Blues - Hank Williams
EXTD=
EXTT0=
EXTT1=
EXTT2=
EXTT3=
EXTT4=
EXTT5=
EXTT6=
EXTT7=
EXTT8=
EXTT9=
EXTT10=
EXTT11=
EXTT12=
EXTT13=
EXTT14=
EXTT15=
EXTT16=
EXTT17=
PLAYORDER=
